<?xml version="1.0" standalone="no"?>
<!DOCTYPE svg PUBLIC "-//W3C//DTD SVG 20010904//EN"
 "http://www.w3.org/TR/2001/REC-SVG-20010904/DTD/svg10.dtd">
<svg version="1.0" xmlns="http://www.w3.org/2000/svg"
 width="1778.000000pt" height="1778.000000pt" viewBox="0 0 1778.000000 1778.000000"
 preserveAspectRatio="xMidYMid meet">
<metadata>
Created by potrace 1.14, written by Peter Selinger 2001-2017
</metadata>
<g transform="translate(0.000000,1778.000000) scale(0.100000,-0.100000)"
fill="#000000" stroke="none">
<path d="M5477 15554 c-1 -1 -32 -4 -68 -8 -152 -14 -337 -89 -471 -189 -200
-151 -338 -381 -377 -632 -6 -37 -10 -1108 -10 -2748 l-1 -2688 -167 -207
c-91 -114 -178 -221 -192 -238 -14 -17 -40 -49 -57 -70 -17 -21 -66 -82 -108
-134 -42 -52 -82 -102 -89 -110 -53 -67 -182 -226 -187 -230 -3 -3 -66 -81
-140 -175 -74 -93 -137 -172 -140 -175 -4 -3 -62 -75 -130 -160 -68 -85 -126
-157 -129 -160 -3 -3 -62 -75 -130 -160 -125 -156 -288 -357 -476 -590 -56
-69 -177 -219 -270 -335 -213 -264 -431 -534 -453 -560 -9 -11 -33 -40 -52
-65 -38 -49 -55 -70 -83 -103 -10 -12 -31 -37 -45 -56 -15 -19 -52 -64 -82
-101 -30 -37 -125 -154 -211 -261 -86 -107 -211 -261 -278 -344 -66 -82 -129
-166 -138 -185 -10 -19 -18 -59 -19 -88 -9 -235 277 -343 428 -161 58 69 619
764 1198 1484 111 138 209 259 218 270 18 21 108 133 582 720 151 187 315 390
364 450 49 61 244 303 435 539 l346 429 5 -2714 c3 -1493 8 -2723 12 -2734 3
-11 13 -49 23 -84 39 -152 136 -319 252 -435 123 -123 272 -208 458 -259 l80
-22 1994 0 1994 0 0 2102 0 2103 1726 2 1726 3 80 23 c319 93 561 318 669 621
55 154 55 149 56 1409 l0 1162 467 643 c256 353 483 665 503 692 20 28 84 114
141 193 93 128 157 217 323 448 27 38 73 101 101 139 65 88 511 704 546 754
14 20 109 151 210 291 102 140 200 278 219 305 19 28 38 52 41 55 20 19 651
904 660 926 44 116 -7 246 -119 301 -76 37 -149 37 -220 -2 -43 -23 -68 -52
-176 -199 -136 -186 -207 -283 -262 -361 -19 -27 -51 -73 -72 -101 -20 -29
-82 -114 -137 -190 -55 -77 -103 -143 -108 -149 -5 -5 -66 -89 -135 -187 -70
-97 -212 -294 -317 -439 -104 -144 -247 -341 -317 -438 -70 -97 -152 -210
-182 -251 -182 -251 -654 -901 -681 -940 -11 -16 -123 -171 -250 -345 l-230
-316 -2 233 c-2 128 -4 1077 -6 2108 l-2 1875 -24 85 c-65 235 -211 441 -401
568 -128 85 -301 148 -435 158 -56 5 -7273 12 -7278 8z m3324 -564 c6 -25 2
-5130 -4 -5130 -5 0 -137 95 -295 210 -158 116 -334 245 -392 287 -176 129
-615 456 -620 463 -3 4 -59 47 -125 97 -160 120 -313 220 -408 266 -73 36
-217 90 -217 82 0 -2 -15 1 -32 6 -35 10 -220 15 -235 6 -4 -3 -25 -8 -45 -11
-21 -3 -68 -18 -105 -33 -138 -55 -251 -133 -395 -275 -131 -129 -160 -163
-508 -593 -155 -192 -289 -357 -296 -365 -12 -12 -14 325 -14 2311 0 2538 -3
2373 55 2474 63 109 192 195 310 207 52 5 3325 3 3326 -2z m3954 -9 c148 -50
248 -150 289 -290 14 -48 16 -234 16 -1722 l0 -1669 -1847 2 -1847 3 -1 1830
c0 1007 1 1837 3 1845 3 13 197 15 1675 14 1366 0 1679 -2 1712 -13z m-6097
-4196 c29 -9 78 -30 110 -47 52 -28 200 -125 212 -138 3 -3 21 -17 40 -30 19
-14 122 -91 228 -173 106 -82 306 -232 445 -333 138 -102 263 -194 277 -204
14 -10 57 -41 95 -69 39 -27 75 -54 80 -58 6 -5 154 -114 330 -243 176 -128
322 -237 325 -241 4 -6 5 -6396 1 -6421 0 -4 -760 -6 -1688 -5 l-1688 2 -67
32 c-94 44 -160 109 -206 202 l-37 75 -3 3039 -2 3039 142 177 c79 97 203 250
276 341 74 91 147 181 162 200 453 564 557 681 690 783 110 83 179 101 278 72z
m6400 -546 l2 -496 -278 -379 c-153 -208 -334 -453 -402 -544 -69 -90 -132
-174 -140 -187 -23 -34 -223 -307 -229 -313 -4 -3 -19 -23 -35 -45 -101 -138
-235 -268 -319 -310 -59 -29 -75 -33 -130 -31 -125 6 -260 75 -492 251 -184
140 -589 448 -622 473 -28 22 -725 540 -908 675 l-139 103 -1 645 c0 354 4
647 8 650 4 3 834 5 1845 5 l1837 -1 3 -496z m-12 -2899 c-31 -118 -112 -217
-225 -273 l-66 -32 -1695 -3 -1695 -2 0 900 c0 495 2 900 5 900 5 -1 376 -275
413 -306 10 -8 42 -32 70 -52 29 -20 59 -43 67 -49 8 -7 96 -73 195 -147 99
-74 185 -139 190 -143 64 -53 569 -432 625 -469 142 -94 339 -181 453 -201 55
-10 261 -9 312 1 141 28 300 122 440 261 139 138 130 126 830 1071 l90 121 3
-760 c2 -633 0 -770 -12 -817z"/>
</g>
</svg>
